<svg width="512" height="512" xmlns="http://www.w3.org/2000/svg">
  <defs>
    <radialGradient id="woodBase" cx="50%" cy="50%" r="50%">
      <stop offset="0%" style="stop-color:#D2691E"/>
      <stop offset="100%" style="stop-color:#8B4513"/>
    </radialGradient>
    <pattern id="woodGrain" x="0" y="0" width="100%" height="100%">
      <rect width="512" height="512" fill="url(#woodBase)"/>
      <g opacity="0.4">
        <rect x="0" y="40" width="512" height="1" fill="#654321"/>
        <rect x="0" y="80" width="512" height="2" fill="#5D2D0C"/>
        <rect x="0" y="120" width="512" height="1" fill="#654321"/>
        <rect x="0" y="160" width="512" height="3" fill="#5D2D0C"/>
        <rect x="0" y="200" width="512" height="1" fill="#654321"/>
        <rect x="0" y="240" width="512" height="2" fill="#5D2D0C"/>
        <rect x="0" y="280" width="512" height="1" fill="#654321"/>
        <rect x="0" y="320" width="512" height="3" fill="#5D2D0C"/>
        <rect x="0" y="360" width="512" height="1" fill="#654321"/>
        <rect x="0" y="400" width="512" height="2" fill="#5D2D0C"/>
        <rect x="0" y="440" width="512" height="1" fill="#654321"/>
        <rect x="0" y="480" width="512" height="3" fill="#5D2D0C"/>
      </g>
      <g opacity="0.3">
        <ellipse cx="80" cy="60" rx="60" ry="12" fill="#A0522D"/>
        <ellipse cx="320" cy="140" rx="80" ry="18" fill="#CD853F"/>
        <ellipse cx="120" cy="220" rx="50" ry="10" fill="#A0522D"/>
        <ellipse cx="400" cy="300" rx="70" ry="15" fill="#CD853F"/>
        <ellipse cx="200" cy="380" rx="90" ry="20" fill="#A0522D"/>
        <ellipse cx="450" cy="460" rx="55" ry="12" fill="#CD853F"/>
      </g>
      <g opacity="0.2">
        <path d="M0,30 Q256,35 512,30 Q256,25 0,30" fill="#8B7355"/>
        <path d="M0,90 Q256,95 512,90 Q256,85 0,90" fill="#8B7355"/>
        <path d="M0,150 Q256,155 512,150 Q256,145 0,150" fill="#8B7355"/>
        <path d="M0,210 Q256,215 512,210 Q256,205 0,210" fill="#8B7355"/>
        <path d="M0,270 Q256,275 512,270 Q256,265 0,270" fill="#8B7355"/>
        <path d="M0,330 Q256,335 512,330 Q256,325 0,330" fill="#8B7355"/>
        <path d="M0,390 Q256,395 512,390 Q256,385 0,390" fill="#8B7355"/>
        <path d="M0,450 Q256,455 512,450 Q256,445 0,450" fill="#8B7355"/>
      </g>
    </pattern>
  </defs>
  <rect width="512" height="512" fill="url(#woodGrain)"/>
</svg>